<mxfile host="app.diagrams.net" modified="2020-11-08T11:26:10.289Z" agent="5.0 (X11; Linux x86_64) AppleWebKit/537.36 (KHTML, like Gecko) Chrome/85.0.4183.121 Safari/537.36" etag="Tbrb46nYvyXYC_HQ8v0n" version="13.9.2" type="github">
  <diagram id="b3vTMYLCP9W2PtNbt77q" name="Page-1">
    <mxGraphModel dx="1036" dy="462" grid="1" gridSize="10" guides="1" tooltips="1" connect="1" arrows="1" fold="1" page="1" pageScale="1" pageWidth="850" pageHeight="1100" math="0" shadow="0">
      <root>
        <mxCell id="0" />
        <mxCell id="1" parent="0" />
        <mxCell id="oC1xKJbHEb12oKd4C-OS-1" value="User&lt;br&gt;" style="shape=umlActor;verticalLabelPosition=bottom;verticalAlign=top;html=1;outlineConnect=0;" parent="1" vertex="1">
          <mxGeometry x="200" y="290" width="30" height="60" as="geometry" />
        </mxCell>
        <mxCell id="oC1xKJbHEb12oKd4C-OS-2" value="" style="rounded=0;whiteSpace=wrap;html=1;" parent="1" vertex="1">
          <mxGeometry x="260" y="70" width="460" height="620" as="geometry" />
        </mxCell>
        <mxCell id="oC1xKJbHEb12oKd4C-OS-7" value="Xem trang tin tức, &lt;br&gt;bài báo về sản phẩm" style="ellipse;whiteSpace=wrap;html=1;" parent="1" vertex="1">
          <mxGeometry x="440" y="420" width="120" height="50" as="geometry" />
        </mxCell>
        <mxCell id="oC1xKJbHEb12oKd4C-OS-8" value="Xem trang thông tin liên hệ nhà phân phối" style="ellipse;whiteSpace=wrap;html=1;" parent="1" vertex="1">
          <mxGeometry x="425" y="360" width="140" height="50" as="geometry" />
        </mxCell>
        <mxCell id="oC1xKJbHEb12oKd4C-OS-10" value="Gửi yêu cầu liên hệ" style="ellipse;whiteSpace=wrap;html=1;" parent="1" vertex="1">
          <mxGeometry x="430" y="155" width="120" height="45" as="geometry" />
        </mxCell>
        <mxCell id="oC1xKJbHEb12oKd4C-OS-11" value="Xem mục hỗ trợ&amp;nbsp;&lt;br&gt;khách hàng" style="ellipse;whiteSpace=wrap;html=1;" parent="1" vertex="1">
          <mxGeometry x="280" y="190" width="120" height="60" as="geometry" />
        </mxCell>
        <mxCell id="oC1xKJbHEb12oKd4C-OS-25" value="Xem thông tin khác" style="ellipse;whiteSpace=wrap;html=1;" parent="1" vertex="1">
          <mxGeometry x="435" y="540" width="120" height="40" as="geometry" />
        </mxCell>
        <mxCell id="oC1xKJbHEb12oKd4C-OS-43" value="&amp;lt;&amp;lt;extend&amp;gt;&amp;gt;" style="endArrow=open;endSize=12;dashed=1;html=1;exitX=0;exitY=0.5;exitDx=0;exitDy=0;" parent="1" source="oC1xKJbHEb12oKd4C-OS-10" target="oC1xKJbHEb12oKd4C-OS-11" edge="1">
          <mxGeometry width="160" relative="1" as="geometry">
            <mxPoint x="400" y="92.5" as="sourcePoint" />
            <mxPoint x="460" y="450" as="targetPoint" />
          </mxGeometry>
        </mxCell>
        <mxCell id="oC1xKJbHEb12oKd4C-OS-46" style="edgeStyle=orthogonalEdgeStyle;rounded=0;orthogonalLoop=1;jettySize=auto;html=1;exitX=0.5;exitY=1;exitDx=0;exitDy=0;" parent="1" edge="1">
          <mxGeometry relative="1" as="geometry">
            <mxPoint x="330" y="750" as="sourcePoint" />
            <mxPoint x="330" y="750" as="targetPoint" />
          </mxGeometry>
        </mxCell>
        <mxCell id="oC1xKJbHEb12oKd4C-OS-6" value="Xem trang giới thiệu công ty" style="ellipse;whiteSpace=wrap;html=1;" parent="1" vertex="1">
          <mxGeometry x="440" y="290" width="120" height="50" as="geometry" />
        </mxCell>
        <mxCell id="oC1xKJbHEb12oKd4C-OS-51" value="" style="endArrow=open;endFill=1;endSize=12;html=1;entryX=0;entryY=0.5;entryDx=0;entryDy=0;" parent="1" target="lhrEtbnqwmmrRVrxUpWE-2" edge="1">
          <mxGeometry width="160" relative="1" as="geometry">
            <mxPoint x="240" y="310" as="sourcePoint" />
            <mxPoint x="230" y="240" as="targetPoint" />
          </mxGeometry>
        </mxCell>
        <mxCell id="oC1xKJbHEb12oKd4C-OS-52" value="" style="endArrow=open;endFill=1;endSize=12;html=1;entryX=0;entryY=0.5;entryDx=0;entryDy=0;" parent="1" target="oC1xKJbHEb12oKd4C-OS-6" edge="1">
          <mxGeometry width="160" relative="1" as="geometry">
            <mxPoint x="240" y="320" as="sourcePoint" />
            <mxPoint x="220" y="170" as="targetPoint" />
          </mxGeometry>
        </mxCell>
        <mxCell id="oC1xKJbHEb12oKd4C-OS-53" value="" style="endArrow=open;endFill=1;endSize=12;html=1;entryX=0;entryY=1;entryDx=0;entryDy=0;" parent="1" source="oC1xKJbHEb12oKd4C-OS-1" target="oC1xKJbHEb12oKd4C-OS-11" edge="1">
          <mxGeometry width="160" relative="1" as="geometry">
            <mxPoint x="100" y="290" as="sourcePoint" />
            <mxPoint x="220" y="225" as="targetPoint" />
          </mxGeometry>
        </mxCell>
        <mxCell id="oC1xKJbHEb12oKd4C-OS-54" value="" style="endArrow=open;endFill=1;endSize=12;html=1;entryX=0;entryY=0.5;entryDx=0;entryDy=0;" parent="1" target="oC1xKJbHEb12oKd4C-OS-8" edge="1">
          <mxGeometry width="160" relative="1" as="geometry">
            <mxPoint x="240" y="350" as="sourcePoint" />
            <mxPoint x="190" y="295" as="targetPoint" />
          </mxGeometry>
        </mxCell>
        <mxCell id="oC1xKJbHEb12oKd4C-OS-55" value="" style="endArrow=open;endFill=1;endSize=12;html=1;entryX=0;entryY=0.5;entryDx=0;entryDy=0;" parent="1" target="oC1xKJbHEb12oKd4C-OS-7" edge="1">
          <mxGeometry width="160" relative="1" as="geometry">
            <mxPoint x="240" y="360" as="sourcePoint" />
            <mxPoint x="195" y="375" as="targetPoint" />
          </mxGeometry>
        </mxCell>
        <mxCell id="oC1xKJbHEb12oKd4C-OS-56" value="" style="endArrow=open;endFill=1;endSize=12;html=1;entryX=0;entryY=0.5;entryDx=0;entryDy=0;" parent="1" target="oC1xKJbHEb12oKd4C-OS-25" edge="1">
          <mxGeometry width="160" relative="1" as="geometry">
            <mxPoint x="230" y="380" as="sourcePoint" />
            <mxPoint x="200" y="455" as="targetPoint" />
          </mxGeometry>
        </mxCell>
        <mxCell id="FKWU5doNKABkodQmA4pJ-1" value="Nhà phân phối&lt;br&gt;" style="shape=umlActor;verticalLabelPosition=bottom;verticalAlign=top;html=1;outlineConnect=0;" parent="1" vertex="1">
          <mxGeometry x="780" y="200" width="30" height="60" as="geometry" />
        </mxCell>
        <mxCell id="vDdJAQ7OFqMkGD9wHmio-6" value="Đăng xuất" style="ellipse;whiteSpace=wrap;html=1;" parent="1" vertex="1">
          <mxGeometry x="435" y="480" width="120" height="40" as="geometry" />
        </mxCell>
        <mxCell id="vDdJAQ7OFqMkGD9wHmio-11" value="Admin" style="shape=umlActor;verticalLabelPosition=bottom;verticalAlign=top;html=1;outlineConnect=0;" parent="1" vertex="1">
          <mxGeometry x="780" y="390" width="30" height="60" as="geometry" />
        </mxCell>
        <mxCell id="vDdJAQ7OFqMkGD9wHmio-22" style="edgeStyle=orthogonalEdgeStyle;rounded=0;orthogonalLoop=1;jettySize=auto;html=1;exitX=0.5;exitY=1;exitDx=0;exitDy=0;" parent="1" edge="1">
          <mxGeometry relative="1" as="geometry">
            <mxPoint x="330" y="750" as="sourcePoint" />
            <mxPoint x="330" y="750" as="targetPoint" />
          </mxGeometry>
        </mxCell>
        <mxCell id="vDdJAQ7OFqMkGD9wHmio-30" value="" style="endArrow=open;endFill=1;endSize=12;html=1;entryX=1;entryY=0.5;entryDx=0;entryDy=0;" parent="1" target="oC1xKJbHEb12oKd4C-OS-25" edge="1">
          <mxGeometry width="160" relative="1" as="geometry">
            <mxPoint x="780" y="290" as="sourcePoint" />
            <mxPoint x="720" y="350" as="targetPoint" />
          </mxGeometry>
        </mxCell>
        <mxCell id="vDdJAQ7OFqMkGD9wHmio-31" value="" style="endArrow=open;endFill=1;endSize=12;html=1;entryX=1;entryY=0.7;entryDx=0;entryDy=0;entryPerimeter=0;" parent="1" target="oC1xKJbHEb12oKd4C-OS-25" edge="1">
          <mxGeometry width="160" relative="1" as="geometry">
            <mxPoint x="770" y="450" as="sourcePoint" />
            <mxPoint x="720" y="530" as="targetPoint" />
          </mxGeometry>
        </mxCell>
        <mxCell id="vDdJAQ7OFqMkGD9wHmio-34" value="" style="endArrow=open;endFill=1;endSize=12;html=1;entryX=1;entryY=0.5;entryDx=0;entryDy=0;" parent="1" target="lhrEtbnqwmmrRVrxUpWE-2" edge="1">
          <mxGeometry width="160" relative="1" as="geometry">
            <mxPoint x="750" y="250" as="sourcePoint" />
            <mxPoint x="670" y="205" as="targetPoint" />
          </mxGeometry>
        </mxCell>
        <mxCell id="vDdJAQ7OFqMkGD9wHmio-40" style="edgeStyle=orthogonalEdgeStyle;rounded=0;orthogonalLoop=1;jettySize=auto;html=1;exitX=0.5;exitY=1;exitDx=0;exitDy=0;" parent="1" edge="1">
          <mxGeometry relative="1" as="geometry">
            <mxPoint x="555" y="760" as="sourcePoint" />
            <mxPoint x="555" y="760" as="targetPoint" />
          </mxGeometry>
        </mxCell>
        <mxCell id="vDdJAQ7OFqMkGD9wHmio-46" value="" style="endArrow=open;endFill=1;endSize=12;html=1;entryX=1;entryY=0;entryDx=0;entryDy=0;" parent="1" target="lhrEtbnqwmmrRVrxUpWE-28" edge="1">
          <mxGeometry width="160" relative="1" as="geometry">
            <mxPoint x="770" y="480" as="sourcePoint" />
            <mxPoint x="340" y="528" as="targetPoint" />
          </mxGeometry>
        </mxCell>
        <mxCell id="vDdJAQ7OFqMkGD9wHmio-56" value="Hệ thống giới thiệu chuông gọi phục vụ" style="text;align=center;fontStyle=1;verticalAlign=middle;spacingLeft=3;spacingRight=3;strokeColor=none;rotatable=0;points=[[0,0.5],[1,0.5]];portConstraint=eastwest;" parent="1" vertex="1">
          <mxGeometry x="425" y="80" width="120" height="10" as="geometry" />
        </mxCell>
        <mxCell id="lhrEtbnqwmmrRVrxUpWE-1" value="" style="endArrow=open;endFill=1;endSize=12;html=1;entryX=1;entryY=0.5;entryDx=0;entryDy=0;" edge="1" parent="1" target="vDdJAQ7OFqMkGD9wHmio-6">
          <mxGeometry width="160" relative="1" as="geometry">
            <mxPoint x="770" y="440" as="sourcePoint" />
            <mxPoint x="340" y="528" as="targetPoint" />
          </mxGeometry>
        </mxCell>
        <mxCell id="lhrEtbnqwmmrRVrxUpWE-2" value="Xem sản phẩm" style="ellipse;whiteSpace=wrap;html=1;" vertex="1" parent="1">
          <mxGeometry x="430" y="225" width="120" height="45" as="geometry" />
        </mxCell>
        <mxCell id="lhrEtbnqwmmrRVrxUpWE-3" value="Sửa sản phẩm" style="ellipse;whiteSpace=wrap;html=1;" vertex="1" parent="1">
          <mxGeometry x="550" y="110" width="120" height="45" as="geometry" />
        </mxCell>
        <mxCell id="lhrEtbnqwmmrRVrxUpWE-6" value="" style="endArrow=open;endFill=1;endSize=12;html=1;entryX=0.042;entryY=0.25;entryDx=0;entryDy=0;entryPerimeter=0;" edge="1" parent="1" target="vDdJAQ7OFqMkGD9wHmio-6">
          <mxGeometry width="160" relative="1" as="geometry">
            <mxPoint x="240" y="370" as="sourcePoint" />
            <mxPoint x="430" y="570" as="targetPoint" />
          </mxGeometry>
        </mxCell>
        <mxCell id="lhrEtbnqwmmrRVrxUpWE-9" value="" style="endArrow=open;endFill=1;endSize=12;html=1;entryX=0.925;entryY=0.25;entryDx=0;entryDy=0;entryPerimeter=0;" edge="1" parent="1" target="vDdJAQ7OFqMkGD9wHmio-6">
          <mxGeometry width="160" relative="1" as="geometry">
            <mxPoint x="760" y="290" as="sourcePoint" />
            <mxPoint x="575" y="520" as="targetPoint" />
          </mxGeometry>
        </mxCell>
        <mxCell id="lhrEtbnqwmmrRVrxUpWE-10" value="" style="endArrow=open;endFill=1;endSize=12;html=1;entryX=0.979;entryY=0.68;entryDx=0;entryDy=0;entryPerimeter=0;" edge="1" parent="1" target="oC1xKJbHEb12oKd4C-OS-8">
          <mxGeometry width="160" relative="1" as="geometry">
            <mxPoint x="770" y="410" as="sourcePoint" />
            <mxPoint x="575" y="520" as="targetPoint" />
          </mxGeometry>
        </mxCell>
        <mxCell id="lhrEtbnqwmmrRVrxUpWE-11" value="" style="endArrow=open;endFill=1;endSize=12;html=1;entryX=0.907;entryY=0.24;entryDx=0;entryDy=0;entryPerimeter=0;" edge="1" parent="1" target="oC1xKJbHEb12oKd4C-OS-8">
          <mxGeometry width="160" relative="1" as="geometry">
            <mxPoint x="750" y="260" as="sourcePoint" />
            <mxPoint x="575" y="528" as="targetPoint" />
          </mxGeometry>
        </mxCell>
        <mxCell id="lhrEtbnqwmmrRVrxUpWE-12" value="" style="endArrow=open;endFill=1;endSize=12;html=1;entryX=0.95;entryY=0.2;entryDx=0;entryDy=0;entryPerimeter=0;" edge="1" parent="1" target="oC1xKJbHEb12oKd4C-OS-7">
          <mxGeometry width="160" relative="1" as="geometry">
            <mxPoint x="750" y="280" as="sourcePoint" />
            <mxPoint x="561.98" y="382" as="targetPoint" />
          </mxGeometry>
        </mxCell>
        <mxCell id="lhrEtbnqwmmrRVrxUpWE-13" value="" style="endArrow=open;endFill=1;endSize=12;html=1;entryX=0.95;entryY=0.2;entryDx=0;entryDy=0;entryPerimeter=0;" edge="1" parent="1">
          <mxGeometry width="160" relative="1" as="geometry">
            <mxPoint x="760" y="420" as="sourcePoint" />
            <mxPoint x="564" y="440" as="targetPoint" />
          </mxGeometry>
        </mxCell>
        <mxCell id="lhrEtbnqwmmrRVrxUpWE-14" value="" style="endArrow=open;endFill=1;endSize=12;html=1;entryX=1;entryY=0.5;entryDx=0;entryDy=0;" edge="1" parent="1" target="oC1xKJbHEb12oKd4C-OS-6">
          <mxGeometry width="160" relative="1" as="geometry">
            <mxPoint x="760" y="400" as="sourcePoint" />
            <mxPoint x="560" y="257.5" as="targetPoint" />
          </mxGeometry>
        </mxCell>
        <mxCell id="lhrEtbnqwmmrRVrxUpWE-16" value="" style="endArrow=open;endFill=1;endSize=12;html=1;entryX=1.017;entryY=0.38;entryDx=0;entryDy=0;entryPerimeter=0;" edge="1" parent="1" target="oC1xKJbHEb12oKd4C-OS-6">
          <mxGeometry width="160" relative="1" as="geometry">
            <mxPoint x="740" y="260" as="sourcePoint" />
            <mxPoint x="570" y="325" as="targetPoint" />
          </mxGeometry>
        </mxCell>
        <mxCell id="lhrEtbnqwmmrRVrxUpWE-17" value="" style="endArrow=open;endFill=1;endSize=12;html=1;entryX=0.942;entryY=0.756;entryDx=0;entryDy=0;entryPerimeter=0;" edge="1" parent="1" target="lhrEtbnqwmmrRVrxUpWE-2">
          <mxGeometry width="160" relative="1" as="geometry">
            <mxPoint x="770" y="400" as="sourcePoint" />
            <mxPoint x="570" y="325" as="targetPoint" />
          </mxGeometry>
        </mxCell>
        <mxCell id="lhrEtbnqwmmrRVrxUpWE-22" value="" style="endArrow=open;endFill=1;endSize=12;html=1;entryX=1;entryY=1;entryDx=0;entryDy=0;" edge="1" parent="1" target="lhrEtbnqwmmrRVrxUpWE-3">
          <mxGeometry width="160" relative="1" as="geometry">
            <mxPoint x="770" y="230" as="sourcePoint" />
            <mxPoint x="565" y="172.5" as="targetPoint" />
          </mxGeometry>
        </mxCell>
        <mxCell id="lhrEtbnqwmmrRVrxUpWE-23" value="" style="endArrow=open;endFill=1;endSize=12;html=1;exitX=1;exitY=0.5;exitDx=0;exitDy=0;" edge="1" parent="1" source="oC1xKJbHEb12oKd4C-OS-10">
          <mxGeometry width="160" relative="1" as="geometry">
            <mxPoint x="780" y="240" as="sourcePoint" />
            <mxPoint x="770" y="240" as="targetPoint" />
          </mxGeometry>
        </mxCell>
        <mxCell id="lhrEtbnqwmmrRVrxUpWE-28" value="Sửa các danh mục khác" style="ellipse;whiteSpace=wrap;html=1;" vertex="1" parent="1">
          <mxGeometry x="435" y="600" width="120" height="60" as="geometry" />
        </mxCell>
      </root>
    </mxGraphModel>
  </diagram>
</mxfile>
